<svg width="243" height="331" viewBox="0 0 243 331" fill="none" xmlns="http://www.w3.org/2000/svg">
<path d="M128.859 255.042L174.122 165.295L128.859 75.5485C121.983 61.9157 101.421 66.8075 101.421 82.076L101.421 248.514C101.421 263.783 121.983 268.674 128.859 255.042Z" stroke="#1E221B" stroke-width="10.0614"/>
<path fill-rule="evenodd" clip-rule="evenodd" d="M217.128 144.332C217.128 147.096 219.409 149.266 222.031 150.142C228.37 152.26 232.939 158.244 232.939 165.295C232.939 174.117 225.787 181.268 216.965 181.268C209.871 181.268 203.857 176.644 201.774 170.245C200.914 167.603 198.74 165.295 195.961 165.295V165.295C193.183 165.295 190.88 167.569 191.411 170.296C193.743 182.282 204.297 191.33 216.965 191.33C231.344 191.33 243 179.674 243 165.295C243 152.697 234.052 142.189 222.165 139.78C219.425 139.224 217.128 141.536 217.128 144.332V144.332Z" fill="#1E221B"/>
<path d="M201.029 166.014C201.029 163.235 198.777 160.983 195.999 160.983H176.594C175.801 160.983 175.157 161.627 175.157 162.421V168.17C175.157 168.964 175.801 169.607 176.594 169.607H199.592C200.386 169.607 201.029 168.964 201.029 168.17V166.014Z" fill="#1E221B"/>
<path d="M32.9384 178.533C28.2091 155.674 68.4086 150.612 69.985 189.63C71.5615 228.647 40.0324 227.402 35.6972 218.338" stroke="#1E221B" stroke-width="9.45868" stroke-linecap="round"/>
<path d="M84.5671 267.208C84.5671 267.208 73.1379 250.655 72.7438 236.467" stroke="#1E221B" stroke-width="9.45868" stroke-linecap="round"/>
<path d="M64.3355 139.454C52.5122 88.2192 84.4351 64.6343 84.4351 64.6343" stroke="#1E221B" stroke-width="9.45868" stroke-linecap="round"/>
<path d="M35.6972 218.338C23.0859 239.62 84.5666 267.208 84.5666 190.356C84.5666 152.256 47.1261 109.563 18.356 129.663C-10.4141 149.763 13.2326 184.839 33.7261 179.715" stroke="#1E221B" stroke-width="9.45868" stroke-linecap="round"/>
</svg>
